<svg width="140" height="40" viewBox="0 0 140 40" fill="none" xmlns="http://www.w3.org/2000/svg">
<g id="Vector">
<path d="M7.94603 22.68C7.94603 23.408 8.00203 23.94 8.11403 24.276C8.22603 24.584 8.43603 24.794 8.74403 24.906C9.08003 25.018 9.61203 25.074 10.34 25.074H11.768C13.952 25.074 15.842 24.5 17.438 23.352C19.034 22.176 20.098 20.594 20.63 18.606C20.63 18.55 20.686 18.522 20.798 18.522C20.854 18.522 20.91 18.55 20.966 18.606C21.05 18.634 21.092 18.662 21.092 18.69C20.84 21.462 20.714 23.772 20.714 25.62C20.714 25.844 20.658 26.012 20.546 26.124C20.462 26.208 20.308 26.25 20.084 26.25H0.260025C0.204025 26.25 0.176025 26.166 0.176025 25.998C0.176025 25.83 0.204025 25.746 0.260025 25.746C1.15603 25.746 1.80003 25.676 2.19203 25.536C2.61203 25.396 2.89203 25.13 3.03203 24.738C3.20003 24.318 3.28403 23.688 3.28403 22.848V3.402C3.28403 2.562 3.20003 1.946 3.03203 1.554C2.89203 1.162 2.61203 0.895998 2.19203 0.755998C1.77203 0.587998 1.12803 0.503999 0.260025 0.503999C0.204025 0.503999 0.176025 0.419999 0.176025 0.251999C0.176025 0.0839998 0.204025 0 0.260025 0L2.40203 0.0419995C3.69003 0.0979987 4.75403 0.125998 5.59403 0.125998C6.43403 0.125998 7.49803 0.0979987 8.78603 0.0419995L10.928 0C11.012 0 11.054 0.0839998 11.054 0.251999C11.054 0.419999 11.012 0.503999 10.928 0.503999C10.06 0.503999 9.41603 0.587998 8.99603 0.755998C8.57603 0.895998 8.29603 1.176 8.15603 1.596C8.01603 1.988 7.94603 2.604 7.94603 3.444V22.68Z" fill="white"/>
<path d="M39.4847 23.982C39.5967 23.982 39.6667 24.052 39.6947 24.192C39.7507 24.304 39.7227 24.388 39.6107 24.444L35.2847 26.502C35.1727 26.558 35.0327 26.586 34.8647 26.586C34.4167 26.586 33.9827 26.348 33.5627 25.872C33.1707 25.396 32.8907 24.752 32.7227 23.94L30.9167 25.2C30.2727 25.676 29.6707 26.026 29.1107 26.25C28.5507 26.446 27.9207 26.544 27.2207 26.544C26.0167 26.544 25.1067 26.278 24.4907 25.746C23.8747 25.214 23.5667 24.472 23.5667 23.52C23.5667 22.764 23.7487 22.162 24.1127 21.714C24.4767 21.238 24.9247 20.874 25.4567 20.622C26.0167 20.342 26.7867 20.034 27.7667 19.698L28.8167 19.32L32.5967 17.934V15.54C32.5967 13.748 32.4427 12.446 32.1347 11.634C31.8547 10.822 31.3647 10.416 30.6647 10.416C29.1807 10.416 28.3407 11.564 28.1447 13.86C28.0607 14.7 27.8087 15.302 27.3887 15.666C26.9967 16.03 26.4367 16.212 25.7087 16.212C25.0087 16.212 24.4907 16.072 24.1547 15.792C23.8467 15.484 23.6927 15.092 23.6927 14.616C23.6927 13.776 24.1827 12.978 25.1627 12.222C26.1427 11.438 27.3187 10.808 28.6907 10.332C30.0907 9.856 31.3227 9.618 32.3867 9.618C33.6187 9.618 34.6127 10.01 35.3687 10.794C36.1527 11.55 36.5447 12.712 36.5447 14.28V21.714C36.5447 22.526 36.6847 23.156 36.9647 23.604C37.2727 24.052 37.6927 24.276 38.2247 24.276C38.6167 24.276 39.0227 24.178 39.4427 23.982H39.4847ZM32.6387 23.226C32.6107 23.114 32.5967 22.932 32.5967 22.68V18.648L30.7907 19.488C30.7067 19.516 30.4267 19.628 29.9507 19.824C29.4747 19.992 29.0547 20.286 28.6907 20.706C28.3547 21.126 28.1867 21.616 28.1867 22.176C28.1867 22.848 28.3967 23.38 28.8167 23.772C29.2647 24.136 29.7687 24.318 30.3287 24.318C30.7767 24.318 31.2387 24.164 31.7147 23.856L32.6387 23.226Z" fill="white"/>
<path d="M50.0645 24.528C51.7165 24.556 53.0605 24.654 54.0965 24.822C55.1605 24.99 56.0425 25.41 56.7425 26.082C57.4705 26.726 57.8345 27.72 57.8345 29.064C57.8345 30.632 57.3445 32.102 56.3645 33.474C55.4125 34.874 54.1105 35.994 52.4585 36.834C50.8345 37.674 49.0845 38.094 47.2085 38.094C45.2765 38.094 43.6945 37.646 42.4625 36.75C41.2305 35.882 40.6145 34.734 40.6145 33.306C40.6145 31.346 42.0285 29.442 44.8565 27.594C42.8405 27.202 41.8325 26.194 41.8325 24.57C41.8325 22.834 42.8125 21.308 44.7725 19.992C43.7085 19.488 42.8685 18.788 42.2525 17.892C41.6645 16.968 41.3705 16.002 41.3705 14.994C41.3705 13.874 41.7345 12.922 42.4625 12.138C43.1905 11.354 44.1145 10.766 45.2345 10.374C46.3825 9.954 47.5445 9.744 48.7205 9.744C50.4845 9.744 51.9965 10.192 53.2565 11.088C54.7125 10.108 56.2245 9.618 57.7925 9.618C58.0165 9.618 58.1285 10.01 58.1285 10.794C58.1285 11.214 58.0725 11.662 57.9605 12.138C57.8485 12.586 57.7365 12.768 57.6245 12.684C56.4765 12.208 55.4405 11.97 54.5165 11.97H54.1805C54.9365 12.866 55.3145 13.874 55.3145 14.994C55.3145 16.114 54.9505 17.108 54.2225 17.976C53.4945 18.844 52.5565 19.516 51.4085 19.992C50.2885 20.44 49.1265 20.664 47.9225 20.664C47.0545 20.664 46.2565 20.538 45.5285 20.286C45.0805 20.762 44.8565 21.364 44.8565 22.092C44.8565 22.848 45.0525 23.394 45.4445 23.73C45.8645 24.066 46.4105 24.276 47.0825 24.36C47.7545 24.444 48.7485 24.5 50.0645 24.528ZM47.3345 10.542C46.0745 10.542 45.4445 11.606 45.4445 13.734C45.4445 14.91 45.6125 15.974 45.9485 16.926C46.2845 17.85 46.7185 18.578 47.2505 19.11C47.8105 19.642 48.3985 19.908 49.0145 19.908C49.6305 19.908 50.1485 19.6 50.5685 18.984C50.9885 18.368 51.1985 17.43 51.1985 16.17C51.1985 14.966 51.0025 13.944 50.6105 13.104C50.2185 12.236 49.7145 11.592 49.0985 11.172C48.5105 10.752 47.9225 10.542 47.3345 10.542ZM49.7285 36.75C51.1565 36.75 52.2905 36.302 53.1305 35.406C53.9705 34.51 54.3905 33.292 54.3905 31.752C54.3905 30.548 54.1245 29.666 53.5925 29.106C53.0885 28.574 52.4165 28.238 51.5765 28.098C50.7645 27.986 49.5745 27.916 48.0065 27.888C47.7545 27.888 47.4045 27.874 46.9565 27.846C46.5085 27.818 46.1305 27.79 45.8225 27.762C44.8705 28.462 44.3945 29.582 44.3945 31.122C44.3945 32.914 44.9125 34.3 45.9485 35.28C47.0125 36.26 48.2725 36.75 49.7285 36.75Z" fill="white"/>
<path d="M67.9755 26.796C66.2395 26.796 64.7135 26.404 63.3975 25.62C62.1095 24.808 61.1155 23.73 60.4155 22.386C59.7155 21.014 59.3655 19.53 59.3655 17.934C59.3655 16.114 59.8275 14.574 60.7515 13.314C61.6755 12.026 62.8515 11.074 64.2795 10.458C65.7075 9.814 67.1775 9.492 68.6895 9.492C70.4255 9.492 71.9375 9.898 73.2255 10.71C74.5135 11.522 75.4935 12.6 76.1655 13.944C76.8655 15.26 77.2155 16.674 77.2155 18.186C77.2155 19.866 76.7955 21.364 75.9555 22.68C75.1155 23.968 73.9815 24.976 72.5535 25.704C71.1535 26.432 69.6275 26.796 67.9755 26.796ZM69.2355 25.914C70.3275 25.914 71.1535 25.382 71.7135 24.318C72.3015 23.226 72.5955 21.672 72.5955 19.656C72.5955 17.696 72.3435 16.016 71.8395 14.616C71.3355 13.216 70.6775 12.166 69.8655 11.466C69.0535 10.738 68.1855 10.374 67.2615 10.374C65.0215 10.374 63.9015 12.376 63.9015 16.38C63.9015 18.256 64.1395 19.922 64.6155 21.378C65.0915 22.806 65.7355 23.926 66.5475 24.738C67.3595 25.522 68.2555 25.914 69.2355 25.914Z" fill="white"/>
<path d="M88.5243 26.796C86.7883 26.796 85.2623 26.404 83.9463 25.62C82.6583 24.808 81.6643 23.73 80.9643 22.386C80.2643 21.014 79.9143 19.53 79.9143 17.934C79.9143 16.114 80.3763 14.574 81.3003 13.314C82.2243 12.026 83.4003 11.074 84.8283 10.458C86.2563 9.814 87.7263 9.492 89.2383 9.492C90.9743 9.492 92.4863 9.898 93.7743 10.71C95.0623 11.522 96.0423 12.6 96.7143 13.944C97.4143 15.26 97.7643 16.674 97.7643 18.186C97.7643 19.866 97.3443 21.364 96.5043 22.68C95.6643 23.968 94.5303 24.976 93.1023 25.704C91.7023 26.432 90.1763 26.796 88.5243 26.796ZM89.7843 25.914C90.8763 25.914 91.7023 25.382 92.2623 24.318C92.8503 23.226 93.1443 21.672 93.1443 19.656C93.1443 17.696 92.8923 16.016 92.3883 14.616C91.8843 13.216 91.2263 12.166 90.4143 11.466C89.6023 10.738 88.7343 10.374 87.8103 10.374C85.5703 10.374 84.4503 12.376 84.4503 16.38C84.4503 18.256 84.6883 19.922 85.1643 21.378C85.6403 22.806 86.2843 23.926 87.0963 24.738C87.9083 25.522 88.8043 25.914 89.7843 25.914Z" fill="white"/>
<path d="M120.497 25.746C120.581 25.746 120.623 25.83 120.623 25.998C120.623 26.166 120.581 26.25 120.497 26.25C119.769 26.25 119.195 26.236 118.775 26.208L116.255 26.166L113.819 26.208C113.371 26.236 112.783 26.25 112.055 26.25C111.971 26.25 111.929 26.166 111.929 25.998C111.929 25.83 111.971 25.746 112.055 25.746C112.923 25.746 113.511 25.55 113.819 25.158C114.127 24.738 114.281 23.968 114.281 22.848V16.8C114.281 15.288 114.001 14.168 113.441 13.44C112.909 12.712 112.055 12.348 110.879 12.348C110.207 12.348 109.507 12.488 108.779 12.768C108.079 13.048 107.463 13.426 106.931 13.902V22.848C106.931 23.968 107.085 24.738 107.393 25.158C107.729 25.55 108.331 25.746 109.199 25.746C109.283 25.746 109.325 25.83 109.325 25.998C109.325 26.166 109.283 26.25 109.199 26.25C108.471 26.25 107.897 26.236 107.477 26.208L104.957 26.166L102.479 26.208C102.059 26.236 101.485 26.25 100.757 26.25C100.673 26.25 100.631 26.166 100.631 25.998C100.631 25.83 100.673 25.746 100.757 25.746C101.625 25.746 102.213 25.55 102.521 25.158C102.829 24.738 102.983 23.968 102.983 22.848V14.952C102.983 14.084 102.871 13.454 102.647 13.062C102.451 12.642 102.129 12.432 101.681 12.432C101.205 12.432 100.533 12.628 99.6652 13.02H99.5812C99.4972 13.02 99.4272 12.95 99.3712 12.81C99.3432 12.67 99.3572 12.586 99.4132 12.558L105.251 9.702C105.419 9.646 105.517 9.618 105.545 9.618C105.853 9.618 106.147 9.926 106.427 10.542C106.707 11.13 106.875 11.942 106.931 12.978C108.863 10.682 110.991 9.534 113.315 9.534C114.827 9.534 116.017 10.024 116.885 11.004C117.781 11.956 118.229 13.216 118.229 14.784V22.848C118.229 23.968 118.383 24.738 118.691 25.158C119.027 25.55 119.629 25.746 120.497 25.746Z" fill="white"/>
<path d="M138.825 23.982C138.937 23.982 139.007 24.052 139.035 24.192C139.091 24.304 139.063 24.388 138.951 24.444L134.625 26.502C134.513 26.558 134.373 26.586 134.205 26.586C133.757 26.586 133.323 26.348 132.903 25.872C132.511 25.396 132.231 24.752 132.063 23.94L130.257 25.2C129.613 25.676 129.011 26.026 128.451 26.25C127.891 26.446 127.261 26.544 126.561 26.544C125.357 26.544 124.447 26.278 123.831 25.746C123.215 25.214 122.907 24.472 122.907 23.52C122.907 22.764 123.089 22.162 123.453 21.714C123.817 21.238 124.265 20.874 124.797 20.622C125.357 20.342 126.127 20.034 127.107 19.698L128.157 19.32L131.937 17.934V15.54C131.937 13.748 131.783 12.446 131.475 11.634C131.195 10.822 130.705 10.416 130.005 10.416C128.521 10.416 127.681 11.564 127.485 13.86C127.401 14.7 127.149 15.302 126.729 15.666C126.337 16.03 125.777 16.212 125.049 16.212C124.349 16.212 123.831 16.072 123.495 15.792C123.187 15.484 123.033 15.092 123.033 14.616C123.033 13.776 123.523 12.978 124.503 12.222C125.483 11.438 126.659 10.808 128.031 10.332C129.431 9.856 130.663 9.618 131.727 9.618C132.959 9.618 133.953 10.01 134.709 10.794C135.493 11.55 135.885 12.712 135.885 14.28V21.714C135.885 22.526 136.025 23.156 136.305 23.604C136.613 24.052 137.033 24.276 137.565 24.276C137.957 24.276 138.363 24.178 138.783 23.982H138.825ZM131.979 23.226C131.951 23.114 131.937 22.932 131.937 22.68V18.648L130.131 19.488C130.047 19.516 129.767 19.628 129.291 19.824C128.815 19.992 128.395 20.286 128.031 20.706C127.695 21.126 127.527 21.616 127.527 22.176C127.527 22.848 127.737 23.38 128.157 23.772C128.605 24.136 129.109 24.318 129.669 24.318C130.117 24.318 130.579 24.164 131.055 23.856L131.979 23.226Z" fill="white"/>
<path d="M70.51 39.43C69.85 39.43 69.29 39.29 68.83 39.01C68.38 38.72 68.04 38.35 67.81 37.9C67.59 37.44 67.48 36.96 67.48 36.46C67.48 35.83 67.655 35.28 68.005 34.81C68.355 34.33 68.8 33.965 69.34 33.715C69.89 33.455 70.45 33.325 71.02 33.325C71.5 33.325 71.93 33.425 72.31 33.625C72.7 33.825 72.895 34.1 72.895 34.45C72.895 34.64 72.82 34.805 72.67 34.945C72.53 35.075 72.33 35.14 72.07 35.14C71.83 35.14 71.64 35.08 71.5 34.96C71.36 34.83 71.245 34.635 71.155 34.375C71.065 34.095 70.975 33.905 70.885 33.805C70.805 33.695 70.655 33.64 70.435 33.64C70.005 33.64 69.66 33.855 69.4 34.285C69.15 34.705 69.025 35.265 69.025 35.965C69.025 36.795 69.21 37.46 69.58 37.96C69.95 38.45 70.54 38.695 71.35 38.695C71.62 38.695 71.85 38.665 72.04 38.605C72.24 38.545 72.49 38.445 72.79 38.305H72.805C72.835 38.305 72.86 38.32 72.88 38.35C72.91 38.38 72.915 38.405 72.895 38.425C72.525 38.765 72.155 39.02 71.785 39.19C71.415 39.35 70.99 39.43 70.51 39.43Z" fill="white"/>
<path d="M79.1042 38.26C79.1242 38.26 79.1442 38.28 79.1642 38.32C79.1942 38.36 79.1992 38.39 79.1792 38.41C78.8092 38.77 78.4342 39.03 78.0542 39.19C77.6742 39.35 77.2592 39.43 76.8092 39.43C76.1792 39.43 75.6342 39.3 75.1742 39.04C74.7142 38.77 74.3642 38.415 74.1242 37.975C73.8842 37.525 73.7642 37.04 73.7642 36.52C73.7642 35.94 73.9092 35.405 74.1992 34.915C74.4892 34.425 74.8892 34.04 75.3992 33.76C75.9192 33.47 76.5042 33.325 77.1542 33.325C77.7742 33.325 78.2542 33.465 78.5942 33.745C78.9342 34.025 79.1042 34.46 79.1042 35.05C79.1042 35.36 79.0492 35.515 78.9392 35.515L75.2942 35.53C75.2842 35.6 75.2792 35.715 75.2792 35.875C75.2792 36.755 75.4792 37.445 75.8792 37.945C76.2892 38.445 76.8742 38.695 77.6342 38.695C77.9042 38.695 78.1342 38.665 78.3242 38.605C78.5142 38.545 78.7642 38.435 79.0742 38.275L79.1042 38.26ZM76.5842 33.625C76.2542 33.625 75.9792 33.77 75.7592 34.06C75.5392 34.34 75.3942 34.73 75.3242 35.23L77.4992 35.2C77.4892 34.69 77.4142 34.3 77.2742 34.03C77.1342 33.76 76.9042 33.625 76.5842 33.625Z" fill="white"/>
<path d="M81.2037 39.25C81.1737 39.25 81.1587 39.22 81.1587 39.16C81.1587 39.1 81.1737 39.07 81.2037 39.07C81.4437 39.07 81.6187 39.045 81.7287 38.995C81.8487 38.945 81.9287 38.85 81.9687 38.71C82.0087 38.56 82.0287 38.335 82.0287 38.035V34.705C82.0287 34.355 81.9987 34.115 81.9387 33.985C81.8887 33.855 81.7837 33.79 81.6237 33.79C81.3337 33.79 81.0487 33.945 80.7687 34.255C80.4987 34.565 80.3037 34.95 80.1837 35.41C80.1737 35.43 80.1387 35.44 80.0787 35.44C80.0287 35.44 80.0037 35.43 80.0037 35.41L79.9737 34.435C79.9537 34.035 79.9437 33.75 79.9437 33.58C79.9437 33.52 79.9487 33.485 79.9587 33.475C79.9687 33.455 80.0037 33.445 80.0637 33.445C80.2737 33.445 80.4587 33.45 80.6187 33.46L82.6887 33.475L84.8037 33.46C84.9737 33.45 85.1687 33.445 85.3887 33.445C85.4587 33.445 85.4987 33.455 85.5087 33.475C85.5187 33.485 85.5237 33.52 85.5237 33.58C85.4737 34.58 85.4487 35.19 85.4487 35.41C85.4487 35.43 85.4187 35.44 85.3587 35.44C85.3087 35.44 85.2787 35.43 85.2687 35.41C85.1487 34.95 84.9487 34.565 84.6687 34.255C84.3987 33.945 84.1187 33.79 83.8287 33.79C83.6687 33.79 83.5587 33.855 83.4987 33.985C83.4487 34.115 83.4237 34.355 83.4237 34.705V38.035C83.4237 38.335 83.4437 38.56 83.4837 38.71C83.5237 38.85 83.5987 38.945 83.7087 38.995C83.8287 39.045 84.0037 39.07 84.2337 39.07C84.2637 39.07 84.2787 39.1 84.2787 39.16C84.2787 39.22 84.2637 39.25 84.2337 39.25C83.9537 39.25 83.7387 39.245 83.5887 39.235L82.7487 39.22L81.8787 39.235C81.7187 39.245 81.4937 39.25 81.2037 39.25Z" fill="white"/>
<path d="M89.8115 35.815C91.3515 35.815 92.1215 36.335 92.1215 37.375C92.1215 37.945 91.9015 38.405 91.4615 38.755C91.0315 39.105 90.4665 39.28 89.7665 39.28L88.9565 39.25C88.4765 39.23 88.1315 39.22 87.9215 39.22L87.0515 39.235C86.8915 39.245 86.6665 39.25 86.3765 39.25C86.3465 39.25 86.3315 39.22 86.3315 39.16C86.3315 39.1 86.3465 39.07 86.3765 39.07C86.6165 39.07 86.7915 39.045 86.9015 38.995C87.0215 38.945 87.1015 38.85 87.1415 38.71C87.1815 38.56 87.2015 38.335 87.2015 38.035V34.675C87.2015 34.375 87.1815 34.155 87.1415 34.015C87.1015 33.865 87.0215 33.765 86.9015 33.715C86.7915 33.665 86.6215 33.64 86.3915 33.64C86.3615 33.64 86.3465 33.61 86.3465 33.55C86.3465 33.49 86.3615 33.46 86.3915 33.46C86.6715 33.46 86.8865 33.465 87.0365 33.475L87.9215 33.49L88.8515 33.475C89.0315 33.465 89.2765 33.46 89.5865 33.46C89.6065 33.46 89.6165 33.49 89.6165 33.55C89.6165 33.61 89.6065 33.64 89.5865 33.64C89.2965 33.64 89.0815 33.67 88.9415 33.73C88.8115 33.79 88.7215 33.895 88.6715 34.045C88.6215 34.185 88.5965 34.405 88.5965 34.705V35.95C88.9665 35.86 89.3715 35.815 89.8115 35.815ZM89.4515 39.055C89.8515 39.055 90.1465 38.95 90.3365 38.74C90.5265 38.52 90.6215 38.175 90.6215 37.705C90.6215 36.665 90.1715 36.145 89.2715 36.145C89.0615 36.145 88.8365 36.175 88.5965 36.235V38.035C88.5965 38.395 88.6565 38.655 88.7765 38.815C88.8965 38.975 89.1215 39.055 89.4515 39.055Z" fill="white"/>
<path d="M99.4857 39.445C98.8657 39.445 98.3207 39.305 97.8507 39.025C97.3907 38.735 97.0357 38.35 96.7857 37.87C96.5357 37.38 96.4107 36.85 96.4107 36.28C96.4107 35.63 96.5757 35.08 96.9057 34.63C97.2357 34.17 97.6557 33.83 98.1657 33.61C98.6757 33.38 99.2007 33.265 99.7407 33.265C100.361 33.265 100.901 33.41 101.361 33.7C101.821 33.99 102.171 34.375 102.411 34.855C102.661 35.325 102.786 35.83 102.786 36.37C102.786 36.97 102.636 37.505 102.336 37.975C102.036 38.435 101.631 38.795 101.121 39.055C100.621 39.315 100.076 39.445 99.4857 39.445ZM99.9357 39.13C100.326 39.13 100.621 38.94 100.821 38.56C101.031 38.17 101.136 37.615 101.136 36.895C101.136 36.195 101.046 35.595 100.866 35.095C100.686 34.595 100.451 34.22 100.161 33.97C99.8707 33.71 99.5607 33.58 99.2307 33.58C98.4307 33.58 98.0307 34.295 98.0307 35.725C98.0307 36.395 98.1157 36.99 98.2857 37.51C98.4557 38.02 98.6857 38.42 98.9757 38.71C99.2657 38.99 99.5857 39.13 99.9357 39.13Z" fill="white"/>
<path d="M104.92 39.25C104.89 39.25 104.875 39.22 104.875 39.16C104.875 39.1 104.89 39.07 104.92 39.07C105.16 39.07 105.335 39.045 105.445 38.995C105.565 38.945 105.645 38.85 105.685 38.71C105.725 38.56 105.745 38.335 105.745 38.035V34.705C105.745 34.355 105.715 34.115 105.655 33.985C105.605 33.855 105.5 33.79 105.34 33.79C105.05 33.79 104.765 33.945 104.485 34.255C104.215 34.565 104.02 34.95 103.9 35.41C103.89 35.43 103.855 35.44 103.795 35.44C103.745 35.44 103.72 35.43 103.72 35.41L103.69 34.435C103.67 34.035 103.66 33.75 103.66 33.58C103.66 33.52 103.665 33.485 103.675 33.475C103.685 33.455 103.72 33.445 103.78 33.445C103.99 33.445 104.175 33.45 104.335 33.46L106.405 33.475L108.52 33.46C108.69 33.45 108.885 33.445 109.105 33.445C109.175 33.445 109.215 33.455 109.225 33.475C109.235 33.485 109.24 33.52 109.24 33.58C109.19 34.58 109.165 35.19 109.165 35.41C109.165 35.43 109.135 35.44 109.075 35.44C109.025 35.44 108.995 35.43 108.985 35.41C108.865 34.95 108.665 34.565 108.385 34.255C108.115 33.945 107.835 33.79 107.545 33.79C107.385 33.79 107.275 33.855 107.215 33.985C107.165 34.115 107.14 34.355 107.14 34.705V38.035C107.14 38.335 107.16 38.56 107.2 38.71C107.24 38.85 107.315 38.945 107.425 38.995C107.545 39.045 107.72 39.07 107.95 39.07C107.98 39.07 107.995 39.1 107.995 39.16C107.995 39.22 107.98 39.25 107.95 39.25C107.67 39.25 107.455 39.245 107.305 39.235L106.465 39.22L105.595 39.235C105.435 39.245 105.21 39.25 104.92 39.25Z" fill="white"/>
<path d="M115.432 38.26C115.452 38.26 115.472 38.28 115.492 38.32C115.522 38.36 115.527 38.39 115.507 38.41C115.137 38.77 114.762 39.03 114.382 39.19C114.002 39.35 113.587 39.43 113.137 39.43C112.507 39.43 111.962 39.3 111.502 39.04C111.042 38.77 110.692 38.415 110.452 37.975C110.212 37.525 110.092 37.04 110.092 36.52C110.092 35.94 110.237 35.405 110.527 34.915C110.817 34.425 111.217 34.04 111.727 33.76C112.247 33.47 112.832 33.325 113.482 33.325C114.102 33.325 114.582 33.465 114.922 33.745C115.262 34.025 115.432 34.46 115.432 35.05C115.432 35.36 115.377 35.515 115.267 35.515L111.622 35.53C111.612 35.6 111.607 35.715 111.607 35.875C111.607 36.755 111.807 37.445 112.207 37.945C112.617 38.445 113.202 38.695 113.962 38.695C114.232 38.695 114.462 38.665 114.652 38.605C114.842 38.545 115.092 38.435 115.402 38.275L115.432 38.26ZM112.912 33.625C112.582 33.625 112.307 33.77 112.087 34.06C111.867 34.34 111.722 34.73 111.652 35.23L113.827 35.2C113.817 34.69 113.742 34.3 113.602 34.03C113.462 33.76 113.232 33.625 112.912 33.625Z" fill="white"/>
<path d="M122.482 39.07C122.532 39.07 122.557 39.1 122.557 39.16C122.557 39.22 122.532 39.25 122.482 39.25C122.302 39.25 122.022 39.24 121.642 39.22C121.242 39.2 120.952 39.19 120.772 39.19C120.612 39.19 120.352 39.2 119.992 39.22C119.652 39.24 119.412 39.25 119.272 39.25C119.232 39.25 119.212 39.22 119.212 39.16C119.212 39.1 119.232 39.07 119.272 39.07C119.492 39.07 119.652 39.045 119.752 38.995C119.852 38.935 119.902 38.85 119.902 38.74C119.902 38.66 119.872 38.555 119.812 38.425C119.762 38.285 119.702 38.14 119.632 37.99L118.372 35.305L117.472 37.405C117.292 37.825 117.202 38.165 117.202 38.425C117.202 38.855 117.442 39.07 117.922 39.07C117.972 39.07 117.997 39.1 117.997 39.16C117.997 39.22 117.972 39.25 117.922 39.25C117.812 39.25 117.657 39.24 117.457 39.22C117.257 39.2 117.067 39.19 116.887 39.19C116.677 39.19 116.472 39.2 116.272 39.22C116.092 39.24 115.932 39.25 115.792 39.25C115.742 39.25 115.717 39.22 115.717 39.16C115.717 39.1 115.742 39.07 115.792 39.07C115.972 39.07 116.162 38.945 116.362 38.695C116.572 38.435 116.827 37.96 117.127 37.27L118.867 33.235C118.887 33.195 118.917 33.175 118.957 33.175C118.997 33.175 119.027 33.195 119.047 33.235L120.907 37.195C121.167 37.765 121.367 38.175 121.507 38.425C121.647 38.665 121.787 38.835 121.927 38.935C122.067 39.025 122.252 39.07 122.482 39.07Z" fill="white"/>
<path d="M127.942 38.26C127.962 38.26 127.982 38.28 128.002 38.32C128.032 38.36 128.037 38.39 128.017 38.41C127.647 38.77 127.272 39.03 126.892 39.19C126.512 39.35 126.097 39.43 125.647 39.43C125.017 39.43 124.472 39.3 124.012 39.04C123.552 38.77 123.202 38.415 122.962 37.975C122.722 37.525 122.602 37.04 122.602 36.52C122.602 35.94 122.747 35.405 123.037 34.915C123.327 34.425 123.727 34.04 124.237 33.76C124.757 33.47 125.342 33.325 125.992 33.325C126.612 33.325 127.092 33.465 127.432 33.745C127.772 34.025 127.942 34.46 127.942 35.05C127.942 35.36 127.887 35.515 127.777 35.515L124.132 35.53C124.122 35.6 124.117 35.715 124.117 35.875C124.117 36.755 124.317 37.445 124.717 37.945C125.127 38.445 125.712 38.695 126.472 38.695C126.742 38.695 126.972 38.665 127.162 38.605C127.352 38.545 127.602 38.435 127.912 38.275L127.942 38.26ZM125.422 33.625C125.092 33.625 124.817 33.77 124.597 34.06C124.377 34.34 124.232 34.73 124.162 35.23L126.337 35.2C126.327 34.69 126.252 34.3 126.112 34.03C125.972 33.76 125.742 33.625 125.422 33.625Z" fill="white"/>
<path d="M132.322 32.215C131.932 32.215 131.562 32.15 131.212 32.02C130.872 31.89 130.597 31.72 130.387 31.51C130.187 31.29 130.087 31.055 130.087 30.805C130.087 30.625 130.142 30.485 130.252 30.385C130.362 30.275 130.522 30.22 130.732 30.22C130.922 30.22 131.062 30.265 131.152 30.355C131.252 30.435 131.322 30.535 131.362 30.655C131.402 30.765 131.442 30.93 131.482 31.15C131.522 31.41 131.592 31.615 131.692 31.765C131.802 31.905 132.007 31.975 132.307 31.975C132.607 31.975 132.822 31.9 132.952 31.75C133.082 31.59 133.167 31.37 133.207 31.09C133.267 30.79 133.337 30.57 133.417 30.43C133.507 30.29 133.672 30.22 133.912 30.22C134.112 30.22 134.267 30.275 134.377 30.385C134.487 30.485 134.542 30.625 134.542 30.805C134.542 31.055 134.437 31.29 134.227 31.51C134.017 31.73 133.742 31.905 133.402 32.035C133.062 32.155 132.702 32.215 132.322 32.215ZM135.802 39.07C135.822 39.07 135.832 39.1 135.832 39.16C135.832 39.22 135.822 39.25 135.802 39.25C135.512 39.25 135.287 39.245 135.127 39.235L134.302 39.22L133.417 39.235C133.257 39.245 133.037 39.25 132.757 39.25C132.737 39.25 132.727 39.22 132.727 39.16C132.727 39.1 132.737 39.07 132.757 39.07C132.997 39.07 133.172 39.045 133.282 38.995C133.402 38.945 133.482 38.85 133.522 38.71C133.562 38.56 133.582 38.335 133.582 38.035V35.035L129.937 39.31C129.907 39.35 129.842 39.37 129.742 39.37C129.692 39.37 129.642 39.36 129.592 39.34C129.542 39.33 129.517 39.32 129.517 39.31V34.675C129.517 34.375 129.497 34.155 129.457 34.015C129.417 33.865 129.342 33.765 129.232 33.715C129.122 33.665 128.947 33.64 128.707 33.64C128.687 33.64 128.677 33.61 128.677 33.55C128.677 33.49 128.687 33.46 128.707 33.46C128.937 33.46 129.112 33.465 129.232 33.475L130.192 33.49L131.407 33.475C131.497 33.465 131.607 33.46 131.737 33.46C131.767 33.46 131.782 33.49 131.782 33.55C131.782 33.61 131.767 33.64 131.737 33.64C131.497 33.64 131.317 33.665 131.197 33.715C131.087 33.765 131.012 33.865 130.972 34.015C130.932 34.155 130.912 34.375 130.912 34.675V37.705L134.572 33.415C134.602 33.365 134.667 33.34 134.767 33.34C134.827 33.34 134.877 33.35 134.917 33.37C134.967 33.38 134.992 33.395 134.992 33.415V38.035C134.992 38.335 135.012 38.56 135.052 38.71C135.092 38.85 135.167 38.945 135.277 38.995C135.387 39.045 135.562 39.07 135.802 39.07Z" fill="white"/>
</g>
</svg>
